<svg width="666" height="144" viewBox="0 0 666 144" fill="none" xmlns="http://www.w3.org/2000/svg">
<path opacity="0.5" d="M184.871 137.004H181.274V125.984H166.79V137.004H163.227V112.391H166.79V122.355H181.274V112.391H184.871V137.004ZM223.568 124.73C223.568 131.989 217.432 137.598 210.305 137.598C202.848 137.598 197.075 131.758 197.075 124.334C197.075 117.109 203.277 111.665 210.338 111.665C217.629 111.665 223.568 117.373 223.568 124.73ZM220.005 124.532C220.005 119.122 215.551 115.294 210.305 115.294C204.828 115.294 200.605 119.221 200.605 124.763C200.605 130.075 205.191 133.969 210.338 133.969C215.617 133.969 220.005 129.877 220.005 124.532ZM260.092 137.004H256.496V119.781L247.752 134.991L239.24 119.781V137.004H235.743V112.391H239.273L247.752 127.733L256.529 112.391H260.092V137.004ZM294.837 137.004H273.953V112.391H294.211V116.02H277.549V122.454H285.929V126.017H277.549V133.408H294.837V137.004ZM346.494 137.004H342.898V119.781L334.155 134.991L325.643 119.781V137.004H322.145V112.391H325.676L334.155 127.733L342.931 112.391H346.494V137.004ZM382.098 137.004H378.073L374.542 128.987H363.49L359.827 137.004H355.934L367.119 112.424H371.078L382.098 137.004ZM372.926 125.357L369.032 116.779L365.139 125.357H372.926ZM395.064 137.004H391.534V112.391H395.064V137.004ZM430.521 137.004H426.958L412.111 118.264V137.004H408.581V112.391H412.078L426.892 131.197V112.391H430.521V137.004ZM462.257 115.987H453.58V137.004H450.083V115.987H441.307V112.391H462.257V115.987ZM494.188 137.004H473.303V112.391H493.561V116.02H476.899V122.454H485.28V126.017H476.899V133.408H494.188V137.004ZM527.299 137.004H523.736L508.889 118.264V137.004H505.358V112.391H508.856L523.67 131.197V112.391H527.299V137.004ZM562.829 137.004H558.804L555.274 128.987H544.221L540.559 137.004H536.665L547.85 112.424H551.809L562.829 137.004ZM553.657 125.357L549.764 116.779L545.87 125.357H553.657ZM594.47 137.004H590.907L576.06 118.264V137.004H572.529V112.391H576.027L590.841 131.197V112.391H594.47V137.004ZM631.782 132.583C628.812 136.08 624.754 137.598 620.234 137.598C612.646 137.598 606.377 132.517 606.377 124.631C606.377 117.175 612.151 111.797 619.508 111.797C624.061 111.797 628.152 113.711 631.386 116.845L628.713 119.122C626.074 116.911 623.236 115.393 619.706 115.393C614.295 115.393 609.907 119.122 609.907 124.697C609.907 130.669 614.922 133.969 620.465 133.969C624.325 133.969 626.734 132.682 629.406 130.009L631.782 132.583ZM663.646 137.004H642.761V112.391H663.019V116.02H646.357V122.454H654.738V126.017H646.357V133.408H663.646V137.004Z" fill="#062626"/>
<path d="M642.37 93.3677L627.754 93.3926V16.6326L604.35 16.6284L604.338 2.76172H665.716L665.737 16.6159L642.366 16.6534L642.37 93.3677Z" fill="#062626"/>
<path d="M583.901 93.3679L569.335 93.3929V53.662H526.84L526.845 93.4012L512.229 93.3513V2.77446L526.845 2.76198L526.84 39.8411H569.335L569.34 2.75781L583.901 2.77863V93.3679Z" fill="#062626"/>
<path d="M472.956 54.9522H456.982V41.1896H487.305V93.3843L463.793 93.3469C456.479 93.3344 449.206 91.8773 442.762 88.9175C426.01 81.8197 416.307 65.7467 416.377 47.8919C416.486 20.6123 437.937 2.77421 464.417 2.79086L481.319 2.76172V16.6201L462.353 16.6575C444.119 17.7316 431.48 29.5709 431.26 48.0085C431.081 63.0658 440.593 75.234 455.401 78.5269C461.008 79.7757 466.957 79.6134 472.947 79.5384V54.9522H472.956Z" fill="#062626"/>
<path d="M396.094 93.3502L381.49 93.396V2.79009L396.09 2.77344L396.094 93.3502Z" fill="#062626"/>
<path d="M332.837 93.3344L304.933 93.3843L304.945 79.5717L332.237 79.5384C339.926 79.5301 345.584 73.7104 345.425 66.2546C345.267 58.7988 338.998 53.3953 331.401 53.7866C324.236 54.153 317.476 52.6044 311.756 48.3582C299.146 38.9999 298.11 20.6956 309.695 10.0135C314.716 5.38852 321.322 2.7867 328.366 2.78253L355.612 2.76172L355.6 16.6242L327.575 16.7033C320.669 16.7242 315.877 22.5647 316.227 29.0839C316.576 35.603 322.334 40.3154 329.232 39.9657C335.434 39.6493 341.383 40.7567 346.724 43.8539C353.851 47.9877 358.726 55.1562 359.754 62.9117C361.981 79.7466 348.631 93.3094 332.837 93.3385V93.3344Z" fill="#062626"/>
<path d="M280.131 96.1676L221.205 34.9019L221.197 93.3868L206.631 93.3826L206.639 0L265.553 60.9701L265.569 2.75585L280.131 2.78083V96.1676Z" fill="#062626"/>
<path d="M180.054 93.3661L165.459 93.3869V2.78516H180.05L180.054 93.3661Z" fill="#062626"/>
<g opacity="0.4" filter="url(#filter0_d_972_1729)">
<mask id="path-9-inside-1_972_1729" fill="white">
<path d="M114.142 72.1439C116.476 70.3083 119.899 71.9707 119.899 74.9398V134.846C119.899 136.811 118.306 138.404 116.342 138.404H40.1794C36.8022 138.404 35.3257 134.138 37.9802 132.05L52.9685 120.261H101.401V82.1653L114.142 72.1439Z"/>
</mask>
<path d="M114.142 72.1439C116.476 70.3083 119.899 71.9707 119.899 74.9398V134.846C119.899 136.811 118.306 138.404 116.342 138.404H40.1794C36.8022 138.404 35.3257 134.138 37.9802 132.05L52.9685 120.261H101.401V82.1653L114.142 72.1439Z" fill="#062626"/>
<path fill-rule="evenodd" clip-rule="evenodd" d="M113.623 71.4837C113.969 71.9238 114.315 72.3639 114.662 72.804C116.27 71.3644 119.201 72.7642 119.083 74.9398C119.089 76.9551 119.095 78.9704 119.101 80.9858C119.155 98.9392 119.209 116.893 119.263 134.846C119.307 136.401 117.906 137.817 116.342 137.784C90.9542 137.86 65.5668 137.936 40.1794 138.012C37.3247 138.221 35.827 133.973 38.2059 132.337C43.1902 128.392 48.1745 124.448 53.1588 120.503L52.9685 120.569C69.1127 120.521 85.2569 120.472 101.401 120.424L101.563 120.424L101.564 120.261C101.526 107.562 101.488 94.8639 101.45 82.1653L101.431 82.2035C102.006 81.7489 102.58 81.2944 103.154 80.8398C106.817 77.9411 110.48 75.0425 114.142 72.1439C110.462 75.0205 106.782 77.8971 103.102 80.7738C102.525 81.2249 101.948 81.676 101.371 82.1272L101.352 82.1419L101.353 82.1653C101.314 94.8639 101.276 107.562 101.238 120.261L101.401 120.098C85.2569 120.05 69.1127 120.002 52.9685 119.953L52.861 119.953L52.7782 120.019C47.7703 123.934 42.7624 127.848 37.7546 131.763C34.8235 133.763 36.6127 139.012 40.1794 138.795C65.5668 138.871 90.9542 138.947 116.342 139.023C118.567 139.082 120.583 137.081 120.536 134.846C120.589 116.893 120.643 98.9392 120.697 80.9858C120.703 78.9704 120.709 76.9551 120.715 74.9398C120.907 71.4644 116.265 69.1865 113.623 71.4837ZM114.662 72.804L113.623 71.4837L114.142 72.1439L114.662 72.804Z" fill="#6BA0A8" mask="url(#path-9-inside-1_972_1729)"/>
</g>
<g filter="url(#filter1_i_972_1729)">
<path d="M125.99 48.9401C128.799 50.9548 127.374 55.388 123.917 55.388H108.408C107.616 55.388 106.846 55.6526 106.221 56.1397L24.407 119.915C22.071 121.736 18.6629 120.072 18.6629 117.11V58.9452C18.6629 56.9806 17.0703 55.388 15.1057 55.388H3.564C0.125821 55.388 -1.312 50.9948 1.4609 48.962L60.9744 5.33381C62.2152 4.42419 63.9002 4.41537 65.1505 5.31195L125.99 48.9401Z" fill="url(#paint0_linear_972_1729)"/>
</g>
<g filter="url(#filter2_i_972_1729)">
<path d="M125.759 48.0554C128.548 50.0555 127.133 54.4566 123.701 54.4566H108.305C107.519 54.4566 106.755 54.7192 106.134 55.2028L24.9123 118.517C22.5932 120.325 19.2098 118.672 19.2098 115.732V57.988C19.2098 56.0377 17.6287 54.4566 15.6784 54.4566H4.21984C0.806532 54.4566 -0.620868 50.0951 2.13199 48.0771L61.215 4.76533C62.4469 3.86232 64.1196 3.85357 65.3608 4.74364L125.759 48.0554Z" fill="url(#paint1_linear_972_1729)"/>
</g>
<defs>
<filter id="filter0_d_972_1729" x="35.4955" y="71.376" width="85.5228" height="69.2669" filterUnits="userSpaceOnUse" color-interpolation-filters="sRGB">
<feFlood flood-opacity="0" result="BackgroundImageFix"/>
<feColorMatrix in="SourceAlpha" type="matrix" values="0 0 0 0 0 0 0 0 0 0 0 0 0 0 0 0 0 0 127 0" result="hardAlpha"/>
<feOffset dy="1.11978"/>
<feGaussianBlur stdDeviation="0.55989"/>
<feComposite in2="hardAlpha" operator="out"/>
<feColorMatrix type="matrix" values="0 0 0 0 0 0 0 0 0 0 0 0 0 0 0 0 0 0 0.25 0"/>
<feBlend mode="normal" in2="BackgroundImageFix" result="effect1_dropShadow_972_1729"/>
<feBlend mode="normal" in="SourceGraphic" in2="effect1_dropShadow_972_1729" result="shape"/>
</filter>
<filter id="filter1_i_972_1729" x="0" y="4.64551" width="127.48" height="117.148" filterUnits="userSpaceOnUse" color-interpolation-filters="sRGB">
<feFlood flood-opacity="0" result="BackgroundImageFix"/>
<feBlend mode="normal" in="SourceGraphic" in2="BackgroundImageFix" result="shape"/>
<feColorMatrix in="SourceAlpha" type="matrix" values="0 0 0 0 0 0 0 0 0 0 0 0 0 0 0 0 0 0 127 0" result="hardAlpha"/>
<feOffset dy="3.91923"/>
<feGaussianBlur stdDeviation="0.55989"/>
<feComposite in2="hardAlpha" operator="arithmetic" k2="-1" k3="1"/>
<feColorMatrix type="matrix" values="0 0 0 0 0 0 0 0 0 0 0 0 0 0 0 0 0 0 0.25 0"/>
<feBlend mode="normal" in2="shape" result="effect1_innerShadow_972_1729"/>
</filter>
<filter id="filter2_i_972_1729" x="0.681641" y="4.08203" width="126.557" height="116.299" filterUnits="userSpaceOnUse" color-interpolation-filters="sRGB">
<feFlood flood-opacity="0" result="BackgroundImageFix"/>
<feBlend mode="normal" in="SourceGraphic" in2="BackgroundImageFix" result="shape"/>
<feColorMatrix in="SourceAlpha" type="matrix" values="0 0 0 0 0 0 0 0 0 0 0 0 0 0 0 0 0 0 127 0" result="hardAlpha"/>
<feOffset dy="3.89085"/>
<feGaussianBlur stdDeviation="0.555836"/>
<feComposite in2="hardAlpha" operator="arithmetic" k2="-1" k3="1"/>
<feColorMatrix type="matrix" values="0 0 0 0 0 0 0 0 0 0 0 0 0 0 0 0 0 0 0.25 0"/>
<feBlend mode="normal" in2="shape" result="effect1_innerShadow_972_1729"/>
</filter>
<linearGradient id="paint0_linear_972_1729" x1="119.816" y1="48.2195" x2="-6.43873" y2="50.039" gradientUnits="userSpaceOnUse">
<stop stop-color="#A9814E"/>
<stop offset="1" stop-color="#C6BCA3"/>
</linearGradient>
<linearGradient id="paint1_linear_972_1729" x1="119.63" y1="47.3405" x2="-5.71046" y2="49.1469" gradientUnits="userSpaceOnUse">
<stop stop-color="#CC6A04"/>
<stop offset="1" stop-color="#C7AE7F"/>
</linearGradient>
</defs>
</svg>
